<svg width="0" height="0" class="hidden">
  <symbol xmlns="http://www.w3.org/2000/svg" viewBox="0 0 342.89 344.33" id="phone">
    <defs>
      <clipPath id="a">
        <path d="M0 0h342.89v344.328H0zm0 0"></path>
      </clipPath>
    </defs>
    <g clip-path="url(#a)">
      <path d="M288.215 215.098c-12-12.5-27.602-12.5-40.102 0-9.398 9.398-18.699 18.699-28.097 28.101-2.602 2.598-4.703 3.098-7.801 1.598-5.7-3.598-12.5-6.2-18.2-9.899-27.1-17.199-50-39.101-70.3-64-9.903-12.5-18.7-25.5-25-40.601-1-3.098-1-4.7 1.597-7.3 9.903-8.9 18.704-18.2 28.102-27.599 13-13 13-28.101 0-41.101-7.8-7.8-15.101-15.098-22.398-22.399-7.801-7.8-15.102-15.601-22.903-22.902-12-12-27.597-12-40.097 0-9.403 9.402-18.7 18.703-28.102 28.102-8.902 8.898-13.5 19.3-14.601 31.199-1.598 19.3 3.101 38 9.902 56.2 14.101 38 35.398 70.8 60.898 101.5 34.903 41.702 76.5 74.5 125 97.901 21.903 10.399 44.301 18.7 68.2 20.301 17.203 1 31.8-3.601 43.703-16.703 7.796-9.398 17.199-17.2 25.5-26 12.5-13 12.5-28.598 0-41.098-15.102-15.101-30.204-30.199-45.301-45.3" ></path>
    </g>
  </symbol>
  <symbol xmlns="http://www.w3.org/2000/svg" viewBox="0 0 24 22" id="telegram ">
    <path d="M3.566 9.969l3.989 1.562c.285.114.5.36.578.66l.504 1.961a.964.964 0 01.289-.59l9.976-9.851zM8.81 14.82l.718 2.797 1.555-1.148-2.031-1.41a.936.936 0 01-.242-.239m4.476.832l5.375 3.739L21.56 3.8 11.086 14.12l2.172 1.52c.012 0 .02.011.027.011M19.32 22a.935.935 0 01-.53-.172l-6.036-4.187L9.52 20.02a.922.922 0 01-.88.132.974.974 0 01-.597-.672l-1.625-6.312-5.809-2.27a.988.988 0 01-.007-1.82l22.078-9A.943.943 0 0122.992 0h.113a.93.93 0 01.61.281c.02.02.035.028.05.047a1.023 1.023 0 01.231.73c-.004.036-.008.075-.016.11l-3.726 20.039a.984.984 0 01-.567.723.99.99 0 01-.367.07" fill-rule="evenodd" ></path>
  </symbol>
  <symbol xmlns="http://www.w3.org/2000/svg" viewBox="0 0 25.01 26.04" id="viber">
    <defs>
      <clipPath id="a">
        <path d="M0 0h25.012v26.04H0zm0 0"></path>
      </clipPath>
    </defs>
    <g clip-path="url(#a)">
      <path d="M9.14 10.121a.86.86 0 00-.23 1.191.873.873 0 001.21.227 1.879 1.879 0 00.993-1.687 4.798 4.798 0 00-1.015-2.043A4.492 4.492 0 008.43 6.23a1.93 1.93 0 00-1.317-.007 3.12 3.12 0 00-1.957 1.629 2.96 2.96 0 00.024 2.43 16.051 16.051 0 003.48 5.288 16.356 16.356 0 005.328 3.442c.414.168.856.258 1.301.258a2.8 2.8 0 001.156-.239 3.168 3.168 0 001.64-1.941 1.886 1.886 0 00-.007-1.3 4.412 4.412 0 00-1.601-1.65 4.71 4.71 0 00-2.059-1.007 1.907 1.907 0 00-1.707.98.85.85 0 00.21 1.18c.009 0 .013.004.017.008a.873.873 0 001.207-.219c.054-.082.113-.16.18-.23a7.16 7.16 0 012.128 1.558.209.209 0 01-.015.13c-.106.39-.364.722-.72.92a1.379 1.379 0 01-1.077-.05 14.486 14.486 0 01-4.758-3.058A14.334 14.334 0 016.78 9.629a1.376 1.376 0 01-.05-1.07c.207-.348.539-.606.933-.707a.196.196 0 01.133-.012 6.972 6.972 0 011.57 2.101c-.066.067-.14.13-.222.18zm3.903-1.473a2.18 2.18 0 012.187 2.16.869.869 0 001.739 0 3.911 3.911 0 00-3.926-3.878.86.86 0 00-.031 1.718zm0-3.027a5.238 5.238 0 013.703 1.52 5.126 5.126 0 011.535 3.668.866.866 0 00.864.863h.007a.86.86 0 00.868-.856v-.007a6.843 6.843 0 00-2.043-4.887 6.986 6.986 0 00-4.934-2.024.86.86 0 00-.86.864c0 .472.383.86.86.86m9.43-2.712C20.395.89 17.03-.078 12.484 0c-4.59.09-7.656.89-9.652 2.52C.898 4.09 0 6.379 0 9.742v3.43C0 17.14 2.148 21.5 6.25 22.16a.86.86 0 00.988-.71.858.858 0 00-.707-.99c-3.113-.5-4.793-4.128-4.793-7.288v-3.43c0-4.82 1.801-7.844 10.778-8.012 4.07-.09 7.007.73 8.738 2.41a7.389 7.389 0 012.008 5.602v3.43c0 5.2-2.356 7.488-8.39 8.16H10.59c-.23 0-.453.09-.617.25L6.957 24.57a.869.869 0 00.02 1.227.872.872 0 001.21-.004l2.762-2.742h4.067c3.453-.38 5.82-1.27 7.445-2.809C24.168 18.632 25 16.32 25 13.172v-3.43a9.132 9.132 0 00-2.527-6.832" fill-rule="evenodd"></path>
    </g>
  </symbol>
  <symbol xmlns="http://www.w3.org/2000/svg" viewBox="0 0 27 26.91" id="whatsapp">
    <path d="M20.438 16.09a1.786 1.786 0 00-.622-.38c-.324-.151-1.921-.94-2.218-1.038a.498.498 0 00-.7.105c-.011.02-.023.036-.035.055-.215.316-.84 1.047-1.027 1.258a.501.501 0 01-.7.082 8.902 8.902 0 01-2.613-1.602 9.66 9.66 0 01-1.808-2.23.469.469 0 01.133-.652l.011-.008c.145-.14.325-.371.485-.559.136-.164.246-.348.324-.543a.58.58 0 00-.023-.558c-.082-.168-.735-1.75-1-2.399-.27-.652-.543-.531-.73-.531-.192 0-.407-.031-.626-.031a1.196 1.196 0 00-.867.402 3.619 3.619 0 00-1.137 2.687 6.203 6.203 0 001.328 3.332c.16.22 2.246 3.579 5.547 4.872 3.305 1.289 3.3.859 3.902.808a3.289 3.289 0 002.192-1.539c.21-.48.277-1.016.183-1.531m-6.69-14.078C7.616 1.984 2.628 6.934 2.601 13.059c0 2.336.742 4.609 2.12 6.492l-1.39 4.097 4.281-1.359c5.078 3.422 11.969 2.074 15.387-3.004 3.418-5.078 2.074-11.969-3.004-15.387a11.092 11.092 0 00-6.25-1.886M27 13.059c-.074 7.34-6.086 13.226-13.422 13.152a13.261 13.261 0 01-6.238-1.633L0 26.91l2.395-7.058a12.992 12.992 0 01-1.903-6.793C.602 5.739 6.625-.105 13.945.004 21.11.114 26.895 5.894 27 13.059" fill-rule="evenodd" ></path>
  </symbol>
  <symbol xmlns="http://www.w3.org/2000/svg" viewBox="0 0 16 28" id="arrow-left">
    <path d="M2.11.004L0 2.12l11.844 11.92L.063 25.891 2.163 28l13.77-13.852-.055-.054.117-.121" ></path>
  </symbol>
  <symbol xmlns="http://www.w3.org/2000/svg" viewBox="0 0 512 511.67" id="calculator">
    <g >
      <path d="M292.145 329.79v-23.985c0-5.512 4.48-9.996 9.992-9.996h23.984c5.508 0 9.992 4.484 9.992 9.996v23.984c0 5.512-4.484 9.992-9.992 9.992h-23.984c-5.512 0-9.992-4.48-9.992-9.992m0 107.93v-23.985c0-5.511 4.48-9.996 9.992-9.996h23.984c5.508 0 9.992 4.485 9.992 9.996v23.985c0 5.508-4.484 9.992-9.992 9.992h-23.984c-5.512 0-9.992-4.484-9.992-9.992m199.867 23.984c0 16.531-13.45 29.98-29.98 29.98H216.987C240.48 477.778 259.7 457.396 272.156 433v4.719c0 16.531 13.45 29.98 29.98 29.98h23.985c16.531 0 29.98-13.449 29.98-29.98v-23.985c0-16.53-13.449-29.98-29.98-29.98h-23.984a29.76 29.76 0 00-15.79 4.512 144.75 144.75 0 001.466-20.5c0-4.02-.172-8-.5-11.934a29.789 29.789 0 0014.824 3.938h23.984c16.531 0 29.98-13.45 29.98-29.98v-23.985c0-16.532-13.449-29.98-29.98-29.98h-23.984c-15.528 0-28.332 11.863-29.832 27-10.61-20.891-26.164-38.868-45.121-52.364 12.152-3.828 20.988-15.203 20.988-28.602v-23.984c0-16.531-13.45-29.98-29.98-29.98h-23.985c-16.531 0-29.98 13.449-29.98 29.98v23.984c0 1.172.074 2.328.207 3.47a144.077 144.077 0 00-20.528-1.474c-2.57 0-5.125.075-7.66.208V49.969c0-16.532 13.45-29.98 29.98-29.98h295.805c16.531 0 29.98 13.448 29.98 29.98zM184.215 221.86v-23.984c0-5.512 4.48-9.992 9.992-9.992h23.984c5.512 0 9.993 4.48 9.993 9.992v23.984c0 5.508-4.48 9.993-9.993 9.993h-23.984c-5.512 0-9.992-4.485-9.992-9.993M19.988 367.766c0-68.332 55.59-123.922 123.918-123.922s123.922 55.59 123.922 123.922c0 68.328-55.594 123.918-123.922 123.918S19.988 436.094 19.988 367.766M462.031.004H166.227c-27.555 0-49.97 22.414-49.97 49.965v176.566C50.09 239.461 0 297.867 0 367.765c0 79.348 64.555 143.907 143.906 143.907h318.125c27.555 0 49.969-22.418 49.969-49.969V49.97C512 22.418 489.586.004 462.031.004"></path>
      <path d="M454.04 43.973h-94.938c-5.52 0-9.997 4.476-9.997 9.996 0 5.52 4.477 9.992 9.997 9.992h84.941v59.96H184.215v-59.96h84.941c5.52 0 9.996-4.473 9.996-9.992 0-5.52-4.476-9.996-9.996-9.996H174.22c-5.52 0-9.992 4.476-9.992 9.996v79.945c0 5.52 4.472 9.996 9.992 9.996h279.82c5.516 0 9.992-4.476 9.992-9.996V53.97c0-5.52-4.476-9.996-9.992-9.996M336.113 221.86c0 5.507-4.48 9.992-9.992 9.992h-23.984c-5.512 0-9.996-4.485-9.996-9.993v-23.984c0-5.512 4.484-9.992 9.996-9.992h23.984c5.512 0 9.992 4.48 9.992 9.992zm-9.992-53.965h-23.984c-16.532 0-29.98 13.449-29.98 29.98v23.984c0 16.532 13.448 29.98 29.98 29.98h23.984c16.531 0 29.98-13.448 29.98-29.98v-23.984c0-16.531-13.449-29.98-29.98-29.98m117.922 53.965c0 5.507-4.48 9.992-9.992 9.992h-23.985c-5.511 0-9.992-4.485-9.992-9.993v-23.984c0-5.512 4.48-9.992 9.992-9.992h23.985c5.512 0 9.992 4.48 9.992 9.992zm-9.992-53.965h-23.985c-16.53 0-29.98 13.449-29.98 29.98v23.984c0 16.532 13.45 29.98 29.98 29.98h23.985c16.531 0 29.98-13.448 29.98-29.98v-23.984c0-16.531-13.449-29.98-29.98-29.98m9.992 269.824c0 5.511-4.48 9.992-9.992 9.992h-23.985c-5.511 0-9.992-4.48-9.992-9.992V305.805c0-5.512 4.48-9.993 9.992-9.993h23.985c5.512 0 9.992 4.481 9.992 9.993zm-9.992-161.895h-23.985c-16.53 0-29.98 13.45-29.98 29.98V437.72c0 16.531 13.45 29.98 29.98 29.98h23.985c16.531 0 29.98-13.449 29.98-29.98V305.805c0-16.532-13.449-29.98-29.98-29.98"></path>
      <path d="M314.129 63.96c2.629 0 5.207-1.07 7.062-2.929a10.054 10.054 0 002.93-7.062c0-2.63-1.066-5.207-2.93-7.067a10.054 10.054 0 00-7.062-2.93 10.07 10.07 0 00-7.067 2.93 10.067 10.067 0 00-2.925 7.067 10.05 10.05 0 002.925 7.062 10.07 10.07 0 007.067 2.93M176.488 301.992c-4.96-2.406-10.941-.34-13.351 4.625l-54.989 113.23c-2.414 4.966-.343 10.946 4.622 13.356a9.99 9.99 0 0013.355-4.621l54.988-113.234c2.414-4.965.344-10.942-4.625-13.356m-71.976 25.488c-4.676 4.68-12.29 4.68-16.965 0-4.68-4.675-4.68-12.289 0-16.964a11.956 11.956 0 018.484-3.508c3.07 0 6.14 1.168 8.48 3.508 4.68 4.675 4.68 12.289 0 16.964m14.137-31.097c-12.472-12.473-32.761-12.473-45.234 0-12.473 12.469-12.473 32.762 0 45.23 6.234 6.235 14.426 9.352 22.617 9.352 8.188 0 16.38-3.117 22.617-9.352 12.47-12.468 12.47-32.761 0-45.23m83.395 128.629c-4.676 4.68-12.29 4.68-16.965 0-4.68-4.68-4.68-12.29 0-16.969a11.966 11.966 0 018.484-3.508c3.07 0 6.141 1.168 8.481 3.508 4.68 4.68 4.68 12.289 0 16.969m-31.102-31.102c-12.468 12.473-12.468 32.762 0 45.235 6.239 6.234 14.43 9.351 22.621 9.351 8.192 0 16.38-3.117 22.614-9.351 12.472-12.473 12.472-32.762 0-45.235-12.473-12.469-32.762-12.469-45.235 0"></path>
    </g>
  </symbol>
</svg>